<svg width="16" height="16" viewBox="0 0 16 16" fill="none" xmlns="http://www.w3.org/2000/svg">
<path d="M2.66672 7.33334H11.4467L9.52672 5.41334C9.40207 5.28868 9.33204 5.11962 9.33204 4.94334C9.33204 4.76705 9.40207 4.59799 9.52672 4.47334C9.65137 4.34868 9.82043 4.27866 9.99672 4.27866C10.173 4.27866 10.3421 4.34868 10.4667 4.47334L13.5267 7.53334C13.5885 7.59501 13.6376 7.66827 13.671 7.74892C13.7045 7.82957 13.7217 7.91602 13.7217 8.00334C13.7217 8.09065 13.7045 8.1771 13.671 8.25775C13.6376 8.3384 13.5885 8.41166 13.5267 8.47334L10.4667 11.5333C10.405 11.5951 10.3317 11.644 10.2511 11.6774C10.1704 11.7108 10.084 11.728 9.99672 11.728C9.90943 11.728 9.823 11.7108 9.74235 11.6774C9.66171 11.644 9.58844 11.5951 9.52672 11.5333C9.465 11.4716 9.41604 11.3983 9.38263 11.3177C9.34923 11.2371 9.33204 11.1506 9.33204 11.0633C9.33204 10.976 9.34923 10.8896 9.38263 10.809C9.41604 10.7283 9.465 10.6551 9.52672 10.5933L11.4467 8.66667H2.66672C2.30005 8.66667 2.00005 8.36667 2.00005 8C2.00005 7.63334 2.30005 7.33334 2.66672 7.33334Z" fill="#5C5C5C"/>
</svg>
