<svg width="64" height="64" viewBox="0 0 64 64" fill="none" xmlns="http://www.w3.org/2000/svg">
<circle cx="32" cy="32" r="32" fill="#EBF9EE"/>
<circle cx="32" cy="32" r="24" fill="#3BC351" fill-opacity="0.3"/>
<circle cx="32" cy="32" r="16" fill="#3BC351" fill-opacity="0.5"/>
<path d="M35.9604 27.9603C36.1482 27.7815 36.3981 27.6826 36.6575 27.6846C36.9168 27.6866 37.1652 27.7892 37.3503 27.9708C37.5354 28.1525 37.6427 28.3989 37.6495 28.6581C37.6564 28.9174 37.5623 29.1691 37.387 29.3603L32.067 36.0136C31.9756 36.1122 31.8652 36.1912 31.7424 36.2461C31.6197 36.301 31.4871 36.3306 31.3527 36.3331C31.2183 36.3356 31.0847 36.3109 30.96 36.2606C30.8354 36.2103 30.7221 36.1354 30.627 36.0403L27.099 32.5123C27.0008 32.4208 26.922 32.3104 26.8673 32.1877C26.8127 32.065 26.7833 31.9326 26.7809 31.7983C26.7785 31.6641 26.8032 31.5307 26.8535 31.4062C26.9038 31.2817 26.9787 31.1685 27.0737 31.0736C27.1686 30.9786 27.2817 30.9038 27.4062 30.8535C27.5308 30.8032 27.6641 30.7785 27.7984 30.7809C27.9327 30.7832 28.0651 30.8126 28.1878 30.8673C28.3104 30.9219 28.4208 31.0007 28.5124 31.099L31.3044 33.8896L35.935 27.9896C35.9434 27.9794 35.9523 27.9696 35.9617 27.9603H35.9604Z" fill="white"/>
</svg>
